<?xml version="1.0" standalone="no"?>
<!DOCTYPE svg PUBLIC "-//W3C//DTD SVG 20010904//EN"
 "http://www.w3.org/TR/2001/REC-SVG-20010904/DTD/svg10.dtd">
<svg version="1.0" xmlns="http://www.w3.org/2000/svg"
 width="775.000000pt" height="264.000000pt" viewBox="0 0 775.000000 264.000000"
 preserveAspectRatio="xMidYMid meet">

<g transform="translate(0.000000,264.000000) scale(0.100000,-0.100000)"
fill="#000000" stroke="none">
<path d="M0 1320 l0 -1320 3875 0 3875 0 0 1320 0 1320 -3875 0 -3875 0 0
-1320z m2860 1011 c0 -4 -14 -26 -31 -47 l-31 -39 34 -6 33 -6 -37 -2 c-46 -1
-48 12 -7 59 l30 35 -33 6 -33 6 38 2 c20 0 37 -3 37 -8z m79 2 c-23 -4 -26
-9 -27 -48 0 -40 2 -44 26 -48 24 -4 23 -4 -5 -6 l-33 -1 0 55 0 55 33 -1 c27
-2 28 -3 6 -6z m119 -5 c8 -8 8 -17 1 -31 -8 -14 -8 -27 0 -46 11 -24 10 -25
-4 -7 -8 11 -15 23 -15 28 0 22 -29 4 -33 -19 -2 -16 -5 -2 -6 30 -1 53 0 57
22 57 13 0 28 -5 35 -12z m111 -11 c13 -34 2 -75 -22 -83 -25 -8 -47 18 -47
56 0 49 53 70 69 27z m199 16 c-14 -3 -18 -16 -20 -56 l-2 -52 -3 52 c-3 38
-8 53 -21 56 -9 3 1 5 23 5 22 0 32 -2 23 -5z m109 -23 c1 -22 1 -22 -4 -2 -6
29 -43 31 -43 2 0 -11 5 -20 11 -20 15 0 38 -31 38 -50 0 -8 -7 -3 -15 13 -8
15 -19 27 -24 27 -5 0 -11 -12 -13 -27 -2 -16 -5 -2 -6 30 -1 58 -1 58 27 55
21 -2 27 -9 29 -28z m63 -64 c16 -16 39 14 43 57 l4 42 1 -41 c2 -51 -19 -84
-45 -68 -13 8 -18 24 -19 60 l-1 49 4 -45 c2 -25 8 -49 13 -54z m144 85 c3 -4
-6 -6 -19 -3 -34 6 -33 -21 1 -36 18 -9 24 -19 22 -35 -4 -28 -40 -34 -58 -10
-12 15 -12 16 0 6 8 -7 22 -13 32 -13 27 0 22 35 -7 48 -24 11 -32 31 -18 45
9 10 41 9 47 -2z m104 2 c-14 -3 -18 -16 -20 -56 l-1 -52 -4 45 c-2 26 -11 50
-20 58 -14 10 -11 12 23 11 21 -1 31 -3 22 -6z m172 -3 c0 -5 -4 -10 -10 -10
-5 0 -10 5 -10 10 0 6 5 10 10 10 6 0 10 -4 10 -10z m125 1 c-27 -6 -30 -10
-30 -46 0 -36 3 -40 30 -46 29 -6 29 -7 -7 -8 l-38 -1 0 55 0 55 38 -1 c36 -1
36 -2 7 -8z m112 -3 c-9 -8 -18 -32 -20 -58 l-4 -45 -1 52 c-2 40 -6 53 -19
56 -10 3 0 5 21 6 34 1 37 -1 23 -11z m50 -35 c-3 -10 -5 -2 -5 17 0 19 2 27
5 18 2 -10 2 -26 0 -35z m162 33 c17 -20 10 -77 -11 -89 -24 -16 -48 8 -48 47
0 49 34 73 59 42z m108 -16 c1 -22 1 -22 -4 -2 -6 29 -43 31 -43 2 0 -11 5
-20 11 -20 15 0 38 -31 38 -50 0 -8 -7 -3 -15 13 -8 15 -19 27 -24 27 -5 0
-11 -12 -13 -27 -2 -16 -5 -2 -6 30 -1 58 -1 58 27 55 21 -2 27 -9 29 -28z
m61 -10 c3 0 17 10 30 23 l25 22 -17 -27 c-16 -25 -16 -29 -1 -60 l16 -33 -21
28 c-12 15 -25 27 -30 27 -5 0 -11 -12 -13 -27 -2 -16 -4 -1 -4 32 0 33 2 50
4 38 2 -13 7 -23 11 -23z m140 29 c-12 -6 -18 -22 -18 -44 0 -22 6 -38 18 -44
14 -8 10 -10 -18 -10 -19 0 -29 3 -22 6 7 3 12 23 12 48 0 25 -5 45 -12 48 -7
3 3 6 22 6 28 0 32 -2 18 -10z m64 -31 c-5 -71 -10 -77 -11 -15 0 31 2 57 7
57 4 0 6 -19 4 -42z m58 -14 c0 -38 -4 -54 -12 -52 -6 2 -14 10 -16 18 -3 7 0
10 7 6 7 -5 11 7 11 38 0 25 2 46 5 46 3 0 5 -25 5 -56z m91 39 c13 -16 12
-17 -3 -4 -10 7 -25 11 -33 7 -23 -9 -16 -80 8 -84 22 -4 35 27 16 39 -11 7
-11 9 4 9 25 0 23 -47 -3 -55 -29 -9 -50 12 -50 49 0 52 34 73 61 39z m-649
-35 c-7 -7 -12 -8 -12 -2 0 14 12 26 19 19 2 -3 -1 -11 -7 -17z m33 -56 c-8
-8 -25 19 -24 38 0 10 3 8 9 -5 7 -17 9 -14 11 15 l2 35 4 -39 c3 -21 2 -41
-2 -44z m-368 16 c-2 -13 -4 -5 -4 17 -1 22 1 32 4 23 2 -10 2 -28 0 -40z m53
-8 c0 -5 -4 -10 -10 -10 -5 0 -10 5 -10 10 0 6 5 10 10 10 6 0 10 -4 10 -10z
m270 0 c0 -5 -4 -10 -10 -10 -5 0 -10 5 -10 10 0 6 5 10 10 10 6 0 10 -4 10
-10z m3036 -406 c31 -8 20 -42 -15 -46 -20 -2 -27 -9 -29 -30 -3 -25 0 -28 27
-28 24 0 31 -4 31 -20 0 -16 -7 -20 -30 -20 l-30 0 0 -110 0 -110 -25 0 -25 0
0 110 0 110 -25 0 c-33 0 -35 37 -2 42 16 2 23 11 25 33 4 35 18 54 47 65 25
11 26 11 51 4z m-5583 -16 c6 -18 -11 -48 -27 -48 -20 0 -39 27 -32 45 7 18
52 20 59 3z m2505 -12 c5 -25 -12 -39 -37 -31 -20 6 -28 34 -14 49 13 13 48 1
51 -18z m2907 0 c0 -29 -31 -44 -50 -25 -23 23 -9 51 24 47 18 -2 26 -9 26
-22z m-6714 -155 c33 -90 59 -168 59 -173 0 -5 -12 -8 -27 -6 -21 2 -29 12
-42 46 l-15 43 -70 -3 -69 -3 -15 -42 c-12 -38 -17 -43 -44 -43 -25 0 -29 3
-23 18 3 9 31 88 62 175 l56 158 35 -3 34 -3 59 -164z m569 109 c0 -33 3 -60
7 -60 3 0 15 8 25 17 29 26 88 20 115 -12 21 -24 23 -36 23 -131 l0 -104 -25
0 c-25 0 -25 0 -25 93 0 82 -3 96 -20 112 -16 15 -26 17 -48 9 -38 -13 -52
-48 -52 -136 0 -76 0 -78 -25 -78 l-25 0 0 175 0 175 25 0 c24 0 25 -3 25 -60z
m2270 -7 c0 -56 2 -64 13 -50 29 39 101 42 134 5 15 -16 19 -41 21 -129 l4
-109 -26 0 c-26 0 -26 0 -26 83 0 94 -14 131 -50 135 -52 6 -65 -17 -68 -122
-4 -94 -4 -96 -28 -96 l-24 0 0 175 0 175 25 0 c24 0 25 -2 25 -67z m2960
-108 l0 -175 -25 0 c-19 0 -25 5 -25 22 l0 21 -25 -23 c-28 -26 -72 -30 -110
-10 -69 37 -74 192 -8 235 35 23 87 23 113 0 20 -18 20 -18 20 37 0 61 4 68
37 68 l23 0 0 -175z m-5370 120 c0 -32 2 -35 30 -35 23 0 30 -4 30 -20 0 -16
-7 -20 -30 -20 l-30 0 0 -77 c0 -85 5 -99 35 -104 11 -3 21 -12 23 -22 5 -25
-62 -23 -88 3 -17 17 -20 33 -20 110 0 83 -1 90 -20 90 -13 0 -20 7 -20 20 0
13 7 20 20 20 15 0 20 7 20 28 0 33 7 42 32 42 14 0 18 -8 18 -35z m2268 -2
c3 -27 7 -33 28 -33 17 0 24 -5 24 -20 0 -15 -7 -20 -25 -20 l-26 0 3 -87 c3
-79 5 -88 23 -92 19 -3 35 -18 35 -33 0 -15 -74 -8 -92 9 -15 13 -18 32 -18
110 0 86 -1 93 -20 93 -13 0 -20 7 -20 20 0 13 7 20 20 20 16 0 20 7 20 36 0
31 3 35 23 32 17 -2 23 -11 25 -35z m970 0 c3 -27 7 -33 28 -33 17 0 24 -5 24
-20 0 -15 -7 -20 -25 -20 l-26 0 3 -87 c3 -83 4 -88 26 -91 14 -2 22 -10 22
-23 0 -15 -7 -19 -32 -19 -62 0 -78 29 -78 139 0 74 -2 81 -20 81 -13 0 -20 7
-20 20 0 13 7 20 20 20 15 0 20 7 20 28 0 35 8 44 35 40 15 -2 21 -12 23 -35z
m780 0 c3 -27 7 -33 28 -33 17 0 24 -5 24 -20 0 -15 -7 -20 -25 -20 l-26 0 3
-87 c3 -81 5 -88 24 -91 12 -2 24 -12 27 -23 4 -16 0 -19 -32 -19 -60 0 -74
24 -79 130 -3 68 -8 90 -18 90 -8 0 -14 9 -14 20 0 11 7 20 15 20 10 0 15 10
15 28 0 35 8 44 35 40 15 -2 21 -12 23 -35z m-3470 -50 c53 -33 67 -145 25
-202 -60 -79 -190 -47 -213 53 -27 122 87 213 188 149z m232 3 c0 -18 -8 -25
-32 -32 -44 -13 -58 -45 -58 -136 0 -76 0 -78 -25 -78 l-25 0 0 130 0 130 25
0 c17 0 25 -6 25 -17 0 -14 2 -15 18 -1 38 33 72 36 72 4z m582 -14 c20 -20
42 -97 33 -113 -4 -5 -46 -9 -96 -9 -49 0 -89 -4 -89 -9 0 -4 9 -20 21 -35 23
-30 64 -35 95 -11 22 17 64 20 64 5 0 -18 -49 -57 -79 -63 -41 -8 -93 9 -122
39 -21 22 -24 35 -24 94 0 59 3 72 24 94 44 47 130 51 173 8z m454 28 c8 0 26
-11 39 -25 23 -23 25 -31 25 -130 l0 -105 -25 0 c-17 0 -25 6 -25 17 0 15 -2
14 -20 -2 -11 -10 -36 -18 -61 -19 -33 -1 -45 5 -65 27 -54 63 -19 116 88 131
54 8 63 17 48 46 -13 25 -51 26 -90 4 -20 -12 -32 -14 -45 -6 -17 9 -17 12 9
35 27 25 67 38 94 30 8 -1 20 -3 28 -3z m994 -19 c32 -23 50 -57 50 -98 l0
-33 -90 0 c-82 0 -90 -2 -90 -19 0 -42 83 -68 110 -36 18 21 62 20 58 -1 -6
-31 -54 -57 -101 -57 -81 2 -122 49 -122 138 2 110 99 166 185 106z m288 -8
c20 -22 22 -34 22 -129 l0 -104 -25 0 c-25 0 -25 0 -25 93 0 82 -3 96 -20 112
-16 15 -26 17 -48 9 -38 -13 -52 -48 -52 -136 0 -76 0 -78 -25 -78 l-25 0 0
130 0 130 25 0 c19 0 25 -5 25 -22 l0 -21 23 20 c42 39 87 38 125 -4z m479 27
c20 0 76 -57 68 -70 -10 -16 -41 -11 -60 10 -23 26 -67 26 -90 0 -26 -29 -26
-111 -1 -139 25 -28 70 -27 93 2 11 14 26 21 41 19 27 -4 28 -12 2 -45 -42
-53 -132 -53 -181 -1 -21 22 -24 35 -24 94 0 59 3 72 24 94 26 27 76 47 99 40
8 -2 20 -4 29 -4z m259 0 c8 0 26 -11 39 -25 23 -23 25 -31 25 -130 l0 -105
-25 0 c-17 0 -25 6 -25 17 0 15 -2 14 -20 -2 -11 -10 -36 -18 -61 -19 -33 -1
-45 5 -65 27 -54 63 -19 116 88 131 54 8 63 17 48 46 -13 25 -51 26 -90 4 -20
-12 -32 -14 -45 -6 -17 9 -17 12 9 35 27 25 67 38 94 30 8 -1 20 -3 28 -3z
m456 -28 c20 -20 42 -97 33 -113 -4 -5 -46 -9 -96 -9 -49 0 -89 -4 -89 -9 0
-4 9 -20 21 -35 23 -30 64 -35 95 -11 22 17 64 20 64 5 0 -18 -49 -57 -79 -63
-41 -8 -93 9 -122 39 -21 22 -24 35 -24 94 0 59 3 72 24 94 44 47 130 51 173
8z m454 28 c8 0 26 -11 39 -25 23 -23 25 -31 25 -130 l0 -105 -25 0 c-17 0
-25 6 -25 17 0 15 -2 14 -20 -2 -11 -10 -36 -18 -61 -19 -33 -1 -45 5 -65 27
-54 63 -19 116 88 131 54 8 63 17 48 46 -13 25 -51 26 -90 4 -20 -12 -32 -14
-45 -6 -17 9 -17 12 9 35 27 25 67 38 94 30 8 -1 20 -3 28 -3z m312 -23 c20
-19 22 -29 22 -129 l0 -108 -25 0 c-25 0 -25 0 -25 94 0 73 -4 98 -16 110 -20
20 -43 20 -72 0 -20 -14 -22 -23 -22 -110 l0 -94 -30 0 -30 0 0 130 0 130 25
0 c19 0 25 -5 25 -22 l0 -21 23 20 c38 36 85 36 125 0z m900 10 c31 -15 52
-57 52 -102 l0 -35 -90 0 c-73 0 -90 -3 -90 -15 0 -44 81 -72 114 -40 15 16
52 20 60 7 8 -13 -20 -41 -58 -57 -70 -29 -149 13 -166 89 -26 118 73 204 178
153z m240 -3 c2 -17 -4 -23 -29 -28 -55 -11 -59 -20 -59 -122 l0 -94 -30 0
-30 0 0 130 0 130 30 0 c17 0 30 -4 30 -9 0 -6 12 -3 28 5 35 18 56 14 60 -12z
m-6478 -74 c0 -77 3 -93 20 -110 25 -25 41 -25 71 -1 21 17 24 29 27 110 4 88
5 91 28 91 l24 0 0 -130 0 -130 -25 0 c-19 0 -25 5 -25 22 l0 21 -23 -21 c-29
-28 -86 -29 -118 -3 -22 18 -24 28 -27 130 l-4 111 26 0 26 0 0 -90z m1150
-40 l0 -130 -25 0 -25 0 0 130 0 130 25 0 25 0 0 -130z m260 116 c0 -8 -29
-53 -65 -100 -36 -47 -65 -88 -65 -91 0 -3 29 -5 65 -5 63 0 65 -1 65 -25 l0
-25 -105 0 c-131 0 -132 3 -35 126 l69 89 -69 3 c-62 3 -70 5 -70 22 0 19 7
20 105 20 85 0 105 -3 105 -14z m860 -81 c0 -88 2 -96 24 -110 27 -18 69 -7
80 20 3 9 6 55 6 101 0 83 0 84 25 84 l25 0 0 -130 0 -130 -25 0 c-16 0 -25 6
-25 16 0 14 -2 14 -22 0 -35 -25 -90 -20 -119 10 -21 22 -24 36 -27 130 l-4
104 31 0 31 0 0 -95z m1390 -35 l0 -130 -30 0 -30 0 0 130 0 130 30 0 30 0 0
-130z m2213 58 c14 -40 29 -86 33 -101 3 -15 9 -26 11 -23 3 3 20 47 38 98 28
84 35 93 58 96 15 2 27 0 27 -4 0 -4 -21 -63 -47 -131 -46 -123 -46 -124 -76
-121 -27 3 -33 10 -53 63 -12 33 -34 90 -48 128 l-25 67 28 0 c26 0 30 -6 54
-72z m687 -58 l0 -130 -25 0 -25 0 0 130 0 130 25 0 25 0 0 -130z m276 78 c10
-29 25 -75 34 -102 l16 -49 36 99 c31 89 38 99 61 102 15 2 27 -1 27 -5 0 -28
-123 -321 -141 -335 -28 -24 -94 -25 -85 -2 3 9 6 20 6 25 0 5 11 9 25 9 14 0
29 8 36 21 11 21 3 47 -72 242 l-19 47 29 0 c26 0 31 -5 47 -52z m-5067 -225
c-10 -38 -19 -69 -19 -70 0 -2 -9 -3 -21 -3 -17 0 -20 5 -15 28 3 15 8 46 11
70 6 38 9 42 35 42 l29 0 -20 -67z m2930 0 c-10 -38 -19 -69 -19 -70 0 -2 -9
-3 -21 -3 -17 0 -20 5 -15 28 3 15 8 46 11 70 6 38 9 42 35 42 l29 0 -20 -67z
m-3611 -217 c5 -25 -12 -39 -37 -31 -20 6 -28 34 -14 49 13 13 48 1 51 -18z
m1630 0 c5 -25 -12 -39 -37 -31 -20 6 -28 34 -14 49 13 13 48 1 51 -18z m4052
-83 l0 -97 53 52 c38 38 60 52 81 52 l28 0 -50 -57 -50 -57 55 -70 56 -71 -29
-3 c-29 -4 -37 2 -95 77 -34 43 -49 33 -49 -30 0 -48 -1 -49 -30 -49 l-30 0 0
175 0 175 30 0 30 0 0 -97z m-5292 40 c3 -27 7 -33 28 -33 17 0 24 -5 24 -20
0 -15 -7 -20 -25 -20 l-26 0 3 -87 c3 -83 4 -88 26 -91 14 -2 22 -10 22 -23 0
-15 -7 -19 -32 -19 -62 0 -78 29 -78 139 0 74 -2 81 -20 81 -13 0 -20 7 -20
20 0 13 7 20 20 20 15 0 20 7 20 28 0 35 8 44 35 40 15 -2 21 -12 23 -35z
m1100 0 c3 -27 7 -33 28 -33 17 0 24 -5 24 -20 0 -15 -7 -20 -25 -20 l-26 0 3
-87 c3 -83 4 -88 26 -91 14 -2 22 -10 22 -23 0 -15 -7 -19 -32 -19 -62 0 -78
29 -78 139 0 74 -2 81 -20 81 -13 0 -20 7 -20 20 0 13 7 20 20 20 15 0 20 7
20 28 0 35 8 44 35 40 15 -2 21 -12 23 -35z m3210 0 c3 -27 7 -33 28 -33 17 0
24 -5 24 -20 0 -15 -7 -20 -25 -20 l-26 0 3 -87 c3 -81 5 -88 24 -91 12 -2 24
-12 27 -23 4 -16 0 -19 -32 -19 -60 0 -74 24 -79 130 -3 68 -8 90 -18 90 -8 0
-14 9 -14 20 0 11 7 20 15 20 10 0 15 10 15 28 0 35 8 44 35 40 15 -2 21 -12
23 -35z m-5908 -52 c28 -20 57 -89 47 -114 -5 -14 -22 -17 -96 -17 -82 0 -90
-2 -84 -17 17 -50 84 -72 113 -38 16 19 60 20 60 1 0 -26 -59 -59 -106 -59
-81 0 -131 63 -121 151 11 101 107 148 187 93z m510 0 c28 -20 57 -89 47 -114
-5 -14 -22 -17 -96 -17 -82 0 -90 -2 -84 -17 17 -50 84 -72 113 -38 16 19 60
20 60 1 0 -26 -59 -59 -106 -59 -81 0 -131 63 -121 151 11 101 107 148 187 93z
m230 4 c0 -18 -5 -25 -19 -25 -10 0 -30 -9 -45 -21 -25 -19 -26 -25 -26 -110
0 -88 0 -89 -25 -89 l-25 0 0 130 0 130 25 0 c17 0 25 -6 25 -17 0 -14 2 -15
18 -1 38 34 72 35 72 3z m715 -6 c17 -17 20 -35 23 -129 l4 -110 -26 0 c-26 0
-26 0 -26 83 0 94 -14 131 -50 135 -52 6 -65 -17 -68 -122 -4 -94 -4 -96 -28
-96 l-24 0 0 130 0 130 25 0 c19 0 25 -5 25 -22 0 -20 1 -20 13 -5 29 39 94
42 132 6z m417 -7 c20 -20 42 -97 33 -113 -4 -5 -46 -9 -96 -9 -49 0 -89 -4
-89 -9 0 -4 9 -20 21 -35 23 -30 64 -35 95 -11 22 17 64 20 64 5 0 -18 -49
-57 -79 -63 -41 -8 -93 9 -122 39 -21 22 -24 35 -24 94 0 59 3 72 24 94 44 47
130 51 173 8z m216 11 c2 -17 -4 -22 -32 -27 -20 -4 -40 -15 -46 -26 -5 -10
-10 -57 -10 -104 0 -85 0 -86 -25 -86 l-25 0 0 130 0 130 25 0 c17 0 25 -6 25
-17 0 -14 2 -15 18 -1 36 32 65 33 70 1z m195 5 c28 -14 37 -52 37 -154 0 -94
0 -94 -25 -94 -15 0 -25 6 -25 14 0 10 -9 9 -40 -6 -33 -17 -45 -18 -71 -9
-40 14 -58 38 -59 77 0 43 26 63 99 75 59 11 62 13 59 38 -3 22 -8 26 -39 29
-23 2 -40 -2 -49 -12 -15 -18 -46 -21 -56 -5 -10 16 29 50 67 59 36 8 71 4
102 -12z m234 12 c20 0 76 -57 68 -70 -10 -16 -39 -11 -58 10 -33 39 -91 20
-106 -35 -24 -89 54 -166 106 -105 20 22 63 27 63 7 0 -20 -43 -56 -79 -67
-43 -12 -98 7 -125 43 -29 40 -29 134 0 174 21 29 79 55 102 47 8 -2 20 -4 29
-4z m550 -16 c37 -23 55 -60 55 -114 0 -81 -48 -133 -122 -133 -77 0 -127 64
-117 151 11 99 103 147 184 96z m267 12 c44 -18 56 -55 56 -167 l0 -89 -30 0
-30 0 0 94 c0 73 -4 98 -16 110 -21 22 -50 20 -74 -4 -17 -17 -20 -33 -20
-110 0 -89 0 -90 -25 -90 l-25 0 0 130 0 130 25 0 c17 0 25 -6 25 -17 0 -15 2
-15 18 -1 9 9 26 18 37 21 11 2 21 5 23 6 1 0 18 -5 36 -13z m415 -27 c51 -51
51 -147 0 -198 -92 -92 -229 -2 -203 134 17 94 136 132 203 64z m276 10 c17
-17 20 -35 23 -129 l4 -110 -26 0 c-26 0 -26 0 -26 83 0 94 -14 131 -50 135
-52 6 -65 -17 -68 -122 -4 -94 -4 -96 -28 -96 l-24 0 0 130 0 130 25 0 c19 0
25 -5 25 -22 0 -20 1 -20 13 -5 29 39 94 42 132 6z m625 2 c39 -28 51 -60 47
-123 -2 -44 -9 -64 -27 -83 -48 -51 -132 -51 -181 1 -21 22 -24 35 -24 94 0
59 3 72 24 94 44 46 109 53 161 17z m510 4 c0 -18 -5 -25 -19 -25 -10 0 -30
-9 -45 -21 -25 -19 -26 -25 -26 -110 0 -88 0 -89 -25 -89 l-25 0 0 130 0 130
25 0 c17 0 25 -6 25 -17 0 -14 2 -15 18 -1 38 34 72 35 72 3z m338 -8 c20 -19
22 -29 22 -129 l0 -108 -25 0 c-25 0 -25 0 -25 94 0 73 -4 98 -16 110 -20 20
-43 20 -72 0 -20 -14 -22 -23 -22 -110 l0 -94 -30 0 -30 0 0 130 0 130 25 0
c19 0 25 -5 25 -22 l0 -21 23 20 c38 36 85 36 125 0z m274 -5 c20 -20 42 -97
33 -113 -4 -5 -46 -9 -96 -9 -49 0 -89 -4 -89 -9 0 -4 9 -20 21 -35 23 -30 64
-35 95 -11 22 17 64 20 64 5 0 -18 -49 -57 -79 -63 -41 -8 -93 9 -122 39 -21
22 -24 35 -24 94 0 59 3 72 24 94 44 47 130 51 173 8z m788 9 c39 -28 51 -60
47 -123 -2 -44 -9 -64 -27 -83 -48 -51 -132 -51 -181 1 -21 22 -24 35 -24 94
0 59 3 72 24 94 44 46 109 53 161 17z m238 3 c2 -17 -4 -23 -29 -28 -55 -11
-59 -20 -59 -122 l0 -94 -30 0 -30 0 0 130 0 130 30 0 c17 0 30 -4 30 -9 0 -6
12 -3 28 5 35 18 56 14 60 -12z m-6649 -89 l35 -99 34 102 c32 98 35 102 63
102 l28 0 -28 -77 c-66 -177 -66 -178 -98 -181 -31 -3 -36 8 -121 246 -3 10 3
13 24 10 27 -3 31 -10 63 -103z m695 8 c17 -51 34 -93 38 -93 4 0 8 4 8 9 0 6
14 48 31 95 29 80 33 86 59 86 l28 0 -58 -152 c-64 -169 -90 -208 -140 -208
-27 0 -31 3 -28 23 2 14 11 23 26 25 13 2 28 14 34 27 8 19 2 45 -36 145 -25
67 -46 127 -46 132 0 5 12 8 27 6 24 -3 30 -12 57 -95z m366 -33 l0 -130 -30
0 -30 0 0 130 0 130 30 0 30 0 0 -130z m1630 0 l0 -130 -30 0 -30 0 0 130 0
130 30 0 30 0 0 -130z m1444 33 c17 -51 34 -93 38 -93 4 0 8 4 8 9 0 6 14 48
31 95 29 80 33 86 59 86 l28 0 -58 -152 c-64 -169 -90 -208 -140 -208 -27 0
-31 3 -28 23 2 14 11 23 26 25 13 2 28 14 34 27 8 19 2 45 -36 145 -25 67 -46
127 -46 132 0 5 12 8 27 6 24 -3 30 -12 57 -95z m516 2 c0 -89 1 -95 24 -111
22 -13 29 -14 53 -2 28 13 28 15 31 111 l3 97 29 0 30 0 0 -130 0 -130 -25 0
c-19 0 -25 5 -25 21 l0 20 -26 -20 c-37 -29 -89 -27 -119 4 -23 23 -25 31 -25
130 l0 105 25 0 c25 0 25 0 25 -95z m1249 58 c6 -21 15 -60 22 -88 13 -54 29
-82 29 -50 0 10 9 54 21 97 20 74 23 78 49 78 28 0 29 -3 53 -102 l24 -102 24
100 c23 93 27 99 52 102 15 2 27 0 27 -5 0 -4 -17 -63 -37 -130 -35 -118 -38
-123 -63 -123 -25 0 -29 5 -50 83 -13 45 -26 85 -29 89 -4 5 -18 -33 -31 -82
-23 -85 -26 -90 -51 -90 -26 0 -29 5 -54 88 -14 48 -32 106 -40 130 l-14 42
29 0 c25 0 31 -5 39 -37z m-139 -642 c0 -5 -6 -12 -12 -14 -10 -4 -10 -8 1
-15 9 -7 10 -12 2 -16 -6 -4 -11 -25 -11 -47 0 -21 -4 -39 -10 -39 -5 0 -10
18 -10 39 0 22 -6 42 -12 45 -10 5 -10 7 0 12 6 3 12 12 12 19 0 12 13 22 33
24 4 1 7 -3 7 -8z m-5255 -51 c9 -51 21 -51 30 0 12 70 38 63 51 -14 7 -44 19
-34 29 26 4 21 11 38 16 38 12 0 12 -4 -7 -72 -18 -63 -32 -70 -47 -22 -5 16
-11 36 -14 44 -3 9 -11 -5 -19 -32 -8 -27 -19 -48 -24 -48 -9 0 -40 91 -40
117 0 29 19 1 25 -37z m175 46 c0 -3 -4 -8 -10 -11 -5 -3 -10 -1 -10 4 0 6 5
11 10 11 6 0 10 -2 10 -4z m100 -16 c0 -13 5 -18 15 -14 25 10 45 -16 45 -57
0 -22 -4 -39 -10 -39 -5 0 -10 18 -10 40 0 33 -3 40 -20 40 -17 0 -20 -7 -20
-40 0 -22 -4 -40 -10 -40 -6 0 -10 28 -10 65 0 37 4 65 10 65 6 0 10 -9 10
-20z m210 11 c-22 -6 -26 -14 -31 -66 l-6 -60 -1 58 c-2 50 -5 59 -24 67 -18
7 -10 9 32 8 38 0 47 -2 30 -7z m180 -56 c0 -37 -4 -65 -10 -65 -6 0 -10 28
-10 65 0 37 4 65 10 65 6 0 10 -28 10 -65z m340 0 c0 -37 -4 -65 -10 -65 -6 0
-10 28 -10 65 0 37 4 65 10 65 6 0 10 -28 10 -65z m1670 28 l0 -36 25 23 c14
13 27 21 30 18 3 -2 -4 -13 -15 -23 -19 -18 -19 -18 1 -46 11 -16 16 -29 10
-29 -6 0 -16 9 -23 20 -7 11 -16 20 -20 20 -5 0 -8 -9 -8 -20 0 -11 -4 -20
-10 -20 -6 0 -10 28 -10 65 0 37 4 65 10 65 6 0 10 -17 10 -37z m2610 27 c0
-5 -2 -10 -4 -10 -3 0 -8 5 -11 10 -3 6 -1 10 4 10 6 0 11 -4 11 -10z m-5062
-17 c12 -12 13 -18 4 -21 -15 -5 -16 -54 0 -70 9 -9 8 -12 -5 -12 -15 0 -19 7
-32 73 -4 19 3 47 12 47 2 0 12 -8 21 -17z m1450 0 c12 -12 13 -18 4 -21 -15
-5 -16 -54 0 -70 9 -9 8 -12 -5 -12 -15 0 -19 7 -32 73 -4 19 3 47 12 47 2 0
12 -8 21 -17z m320 0 c12 -12 13 -18 4 -21 -15 -5 -16 -54 0 -70 9 -9 8 -12
-5 -12 -15 0 -19 7 -32 73 -4 19 3 47 12 47 2 0 12 -8 21 -17z m314 -21 c-16
-5 -16 -54 1 -71 10 -11 9 -13 -3 -9 -9 3 -16 19 -18 39 -2 19 -7 38 -12 43
-5 5 -3 14 3 21 9 9 15 9 27 -3 11 -12 12 -16 2 -20z m1244 24 c9 -9 10 -17 4
-21 -14 -9 -12 -72 3 -79 6 -3 3 -5 -8 -3 -15 2 -21 11 -23 37 -2 19 -7 39
-12 44 -5 5 -3 14 3 22 15 17 16 17 33 0z m252 -3 c12 -12 13 -18 4 -21 -15
-5 -16 -54 0 -70 9 -9 8 -12 -5 -12 -15 0 -19 7 -32 73 -4 19 3 47 12 47 2 0
12 -8 21 -17z m1698 3 c9 -9 10 -17 4 -21 -14 -9 -12 -72 3 -79 6 -3 3 -5 -8
-3 -15 2 -21 11 -23 37 -2 19 -7 39 -12 44 -5 5 -3 14 3 22 15 17 16 17 33 0z
m-5326 -62 c0 -24 -4 -44 -10 -44 -5 0 -10 23 -10 51 0 31 4 48 10 44 6 -3 10
-26 10 -51z m400 37 c5 -11 10 -33 10 -49 0 -28 -2 -30 -37 -29 -31 2 -39 6
-41 25 -3 18 2 23 27 28 17 4 31 11 31 17 0 5 -13 7 -30 4 -29 -6 -42 6 -17
16 26 11 47 6 57 -12z m50 -31 c0 -27 -4 -50 -10 -50 -5 0 -10 23 -10 50 0 28
5 50 10 50 6 0 10 -22 10 -50z m127 34 c2 -7 -6 -10 -24 -7 -25 4 -26 3 -11
-9 9 -7 24 -17 33 -23 25 -16 8 -45 -26 -45 -20 0 -29 5 -29 16 0 13 3 14 15
4 14 -12 35 -6 35 10 0 4 -11 11 -25 14 -24 6 -34 34 -18 50 10 10 46 3 50
-10z m102 2 c10 -12 6 -14 -21 -13 -26 2 -34 -2 -36 -19 -4 -27 24 -52 40 -36
17 17 33 15 18 -3 -36 -44 -97 13 -65 61 17 27 47 31 64 10z m101 -5 c5 -11
10 -33 10 -49 0 -28 -2 -30 -37 -29 -31 2 -39 6 -41 25 -3 18 2 23 27 28 17 4
31 11 31 17 0 5 -13 7 -30 4 -29 -6 -42 6 -17 16 26 11 47 6 57 -12z m138 7
c7 -7 12 -20 12 -30 0 -13 -8 -18 -30 -18 -16 0 -30 -4 -30 -9 0 -17 19 -22
41 -10 17 9 20 8 17 -3 -6 -18 -46 -23 -64 -8 -30 26 -11 90 26 90 9 0 21 -5
28 -12z m212 6 c0 -3 -12 -21 -26 -40 -25 -33 -25 -34 -6 -34 12 0 24 -4 27
-10 4 -6 -10 -10 -34 -10 -23 0 -41 3 -41 6 0 3 12 21 26 40 25 33 25 34 6 34
-12 0 -24 5 -27 10 -4 6 10 10 34 10 23 0 41 -3 41 -6z m88 -6 c7 -7 12 -20
12 -30 0 -14 -8 -18 -37 -18 -35 0 -36 -1 -21 -17 13 -13 20 -14 31 -5 15 12
30 5 21 -9 -11 -19 -54 -9 -70 16 -15 23 -15 27 0 50 18 27 45 32 64 13z m82
1 c0 -5 -7 -9 -15 -9 -11 0 -15 -11 -15 -40 0 -22 -4 -40 -10 -40 -5 0 -10 22
-10 49 0 45 2 49 25 49 14 0 25 -4 25 -9z m88 -1 c7 -7 12 -24 12 -38 0 -32
-17 -50 -47 -50 -38 0 -56 55 -27 84 18 19 45 21 62 4z m175 -6 c-13 -10 -23
-32 -26 -52 -3 -28 -4 -25 -5 15 -2 48 -1 51 26 53 l27 2 -22 -18z m47 -21 c0
-25 5 -41 15 -44 18 -7 27 6 36 53 6 33 7 32 8 -15 1 -49 0 -51 -29 -53 -20
-2 -32 4 -40 17 -13 25 -13 81 0 81 6 0 10 -18 10 -39z m144 33 c9 -3 13 -10
10 -16 -3 -5 -11 -5 -19 2 -10 8 -15 8 -21 -1 -4 -7 -3 -14 3 -16 50 -17 56
-67 6 -61 -14 2 -29 10 -31 18 -5 13 -3 13 11 2 9 -8 21 -11 27 -7 17 11 11
23 -15 29 -15 4 -25 14 -25 25 0 30 19 38 54 25z m216 -13 c13 -24 13 -81 1
-81 -6 0 -11 17 -13 38 -2 29 -7 37 -23 37 -16 0 -21 -9 -26 -40 l-6 -40 -2
50 c-1 49 0 51 29 53 20 2 32 -4 40 -17z m98 7 c7 -7 12 -20 12 -30 0 -13 -8
-18 -30 -18 -16 0 -30 -4 -30 -9 0 -17 19 -22 41 -10 17 9 20 8 17 -3 -6 -18
-46 -23 -64 -8 -30 26 -11 90 26 90 9 0 21 -5 28 -12z m118 -31 l11 -32 8 38
c9 45 25 44 39 -4 l9 -34 10 38 c5 20 13 37 18 37 5 0 6 -12 3 -27 -20 -82
-38 -94 -49 -35 l-8 37 -11 -34 c-7 -19 -17 -36 -23 -38 -8 -3 -33 66 -33 93
0 15 15 -8 26 -39z m192 31 c7 -7 12 -24 12 -38 0 -32 -17 -50 -47 -50 -38 0
-56 55 -27 84 18 19 45 21 62 4z m82 2 c0 -4 -7 -10 -15 -14 -9 -3 -15 -19
-15 -41 0 -19 -4 -35 -10 -35 -5 0 -10 22 -10 49 0 45 2 49 25 49 14 0 25 -4
25 -8z m174 4 c9 -3 13 -10 10 -16 -3 -5 -11 -5 -19 2 -10 8 -15 8 -21 -1 -4
-7 -3 -14 3 -16 50 -17 56 -67 6 -61 -14 2 -29 10 -31 18 -5 13 -3 13 11 2 9
-8 21 -11 27 -7 17 11 11 23 -15 29 -15 4 -25 14 -25 25 0 30 19 38 54 25z
m156 -13 c5 -11 10 -33 10 -49 0 -28 -2 -30 -37 -29 -31 2 -39 6 -41 25 -3 18
2 23 27 28 17 4 31 11 31 17 0 5 -13 7 -30 4 -29 -6 -42 6 -17 16 26 11 47 6
57 -12z m80 8 c0 -5 -7 -9 -15 -9 -11 0 -15 -11 -15 -40 0 -22 -4 -40 -10 -40
-5 0 -10 22 -10 49 0 45 2 49 25 49 14 0 25 -4 25 -9z m77 3 c6 -4 13 -16 15
-27 2 -16 -3 -21 -29 -23 -18 -2 -33 -7 -33 -12 0 -15 32 -20 48 -8 13 11 14
10 10 -2 -6 -19 -45 -25 -64 -10 -17 15 -19 61 -2 78 13 13 37 15 55 4z m160
-7 c2 -6 -9 -11 -24 -10 -21 0 -29 -5 -31 -21 -4 -30 23 -51 45 -33 14 12 16
12 11 -1 -13 -40 -78 -14 -78 31 0 38 66 66 77 34z m101 3 c7 -7 12 -24 12
-38 0 -32 -17 -50 -47 -50 -38 0 -56 55 -27 84 18 19 45 21 62 4z m100 0 c14
-12 16 -88 2 -88 -5 0 -10 18 -10 40 0 33 -3 40 -20 40 -17 0 -20 -7 -20 -40
0 -22 -4 -40 -10 -40 -5 0 -10 22 -10 49 0 46 1 49 28 49 15 0 33 -5 40 -10z
m160 0 c7 -7 12 -20 12 -30 0 -13 -8 -18 -30 -18 -16 0 -30 -4 -30 -9 0 -17
19 -22 41 -10 17 9 20 8 17 -3 -6 -18 -46 -23 -64 -8 -30 26 -11 90 26 90 9 0
21 -5 28 -12z m56 -4 c6 -16 8 -16 24 0 27 24 35 20 16 -9 -15 -23 -15 -27 0
-50 18 -27 6 -35 -15 -9 -12 14 -14 14 -26 -2 -18 -24 -28 -11 -11 15 10 17
10 25 0 41 -14 23 -15 30 -3 30 5 0 12 -7 15 -16z m274 4 c7 -7 12 -29 12 -50
0 -37 -1 -38 -35 -38 -23 0 -38 6 -41 15 -8 20 13 45 37 45 11 0 19 5 19 11 0
7 -10 9 -25 7 -24 -5 -32 2 -18 15 10 11 38 8 51 -5z m58 -31 l11 -32 8 38 c9
45 25 44 39 -4 l9 -34 10 38 c5 20 13 37 18 37 5 0 6 -12 3 -27 -20 -82 -38
-94 -49 -35 l-8 37 -11 -34 c-7 -19 -17 -36 -23 -38 -8 -3 -33 66 -33 93 0 15
15 -8 26 -39z m194 24 c5 -11 10 -33 10 -49 0 -28 -2 -30 -37 -29 -31 2 -39 6
-41 25 -3 18 2 23 27 28 17 4 31 11 31 17 0 5 -13 7 -30 4 -29 -6 -42 6 -17
16 26 11 47 6 57 -12z m80 9 c0 -6 -7 -10 -15 -10 -11 0 -15 -11 -15 -40 0
-22 -4 -40 -10 -40 -5 0 -10 22 -10 48 0 44 2 48 25 50 14 1 25 -3 25 -8z m77
2 c6 -4 13 -16 15 -27 2 -16 -3 -21 -29 -23 -18 -2 -33 -7 -33 -12 0 -15 32
-20 48 -8 13 11 14 10 10 -2 -6 -19 -45 -25 -64 -10 -17 15 -19 61 -2 78 13
13 37 15 55 4z m210 -4 c18 -14 16 -63 -2 -78 -8 -7 -24 -10 -35 -7 -16 4 -20
0 -20 -20 0 -13 -4 -21 -10 -18 -5 3 -10 34 -10 69 l0 63 32 1 c18 0 38 -4 45
-10z m83 2 c0 -4 -7 -10 -15 -14 -9 -3 -15 -19 -15 -41 0 -19 -4 -35 -10 -35
-5 0 -10 22 -10 49 0 45 2 49 25 49 14 0 25 -4 25 -8z m40 -40 c0 -27 -4 -50
-10 -50 -5 0 -10 23 -10 50 0 28 5 50 10 50 6 0 10 -22 10 -50z m46 13 l16
-38 12 32 c14 41 31 56 22 21 -11 -46 -25 -78 -35 -78 -9 0 -41 71 -41 90 0
20 10 9 26 -27z m144 18 c5 -11 10 -33 10 -49 0 -28 -2 -30 -37 -29 -31 2 -39
6 -41 25 -3 18 2 23 27 28 17 4 31 11 31 17 0 5 -13 7 -30 4 -29 -6 -42 6 -17
16 26 11 47 6 57 -12z m100 4 c11 -13 8 -14 -17 -9 -35 7 -50 -15 -33 -47 12
-22 21 -24 38 -7 13 13 27 5 17 -11 -8 -15 -48 -14 -63 1 -7 7 -12 24 -12 38
0 45 43 67 70 35z m52 -26 l14 -42 14 42 c7 22 17 41 22 41 10 0 4 -25 -23
-86 -18 -43 -35 -61 -47 -49 -4 3 1 11 10 16 17 9 16 13 -2 62 -23 61 -23 57
-11 57 5 0 16 -19 23 -41z m225 -36 c-2 -16 -4 -3 -4 27 0 30 2 43 4 28 2 -16
2 -40 0 -55z m83 67 c0 -6 -7 -10 -15 -10 -11 0 -15 -11 -15 -40 0 -22 -4 -40
-10 -40 -5 0 -10 22 -10 48 0 44 2 48 25 50 14 1 25 -3 25 -8z m77 -6 c2 -7
-6 -10 -22 -7 -15 3 -25 1 -25 -6 0 -6 6 -11 14 -11 8 0 22 -7 31 -16 12 -12
13 -19 4 -30 -14 -17 -55 -19 -64 -3 -11 17 3 23 20 9 11 -9 19 -10 27 -2 7 7
1 15 -21 26 -34 18 -37 26 -19 44 15 15 50 12 55 -4z m-1569 -31 c-10 -2 -26
-2 -35 0 -10 3 -2 5 17 5 19 0 27 -2 18 -5z m1300 0 c-10 -2 -26 -2 -35 0 -10
3 -2 5 17 5 19 0 27 -2 18 -5z m-4022 -49 c-3 -9 -6 -20 -6 -25 0 -5 -4 -9 -9
-9 -4 0 -6 11 -3 25 2 14 9 25 14 25 6 0 7 -7 4 -16z m3290 0 c-3 -9 -6 -20
-6 -25 0 -5 -4 -9 -9 -9 -4 0 -6 11 -3 25 2 14 9 25 14 25 6 0 7 -7 4 -16z
m1106 -9 c-2 -14 -8 -25 -13 -25 -10 0 -11 12 -3 34 10 25 22 19 16 -9z
m-3612 -198 c0 -61 -1 -63 -26 -65 -35 -3 -54 14 -54 48 0 33 22 54 50 47 15
-4 20 0 20 14 0 10 2 19 5 19 3 0 5 -28 5 -63z m350 53 c0 -5 -2 -10 -4 -10
-3 0 -8 5 -11 10 -3 6 -1 10 4 10 6 0 11 -4 11 -10z m50 -55 c0 -37 -4 -65
-10 -65 -6 0 -10 28 -10 65 0 37 4 65 10 65 6 0 10 -28 10 -65z m1400 2 l0
-63 -35 -2 c-30 -2 -37 1 -45 24 -14 35 12 78 41 71 14 -4 19 0 19 14 0 10 5
19 10 19 6 0 10 -28 10 -63z m-1102 36 c12 -12 13 -18 4 -21 -15 -5 -16 -54 0
-70 9 -9 8 -12 -5 -12 -15 0 -19 7 -32 73 -4 19 3 47 12 47 2 0 12 -8 21 -17z
m108 3 c9 -9 10 -17 4 -21 -14 -9 -12 -72 3 -79 6 -3 3 -5 -8 -3 -15 2 -21 11
-23 37 -2 19 -7 39 -12 44 -5 5 -3 14 3 22 15 17 16 17 33 0z m-1028 -18 c7
-7 12 -29 12 -50 0 -37 -1 -38 -35 -38 -23 0 -38 6 -41 15 -8 20 13 45 37 45
11 0 19 5 19 11 0 7 -10 9 -25 7 -24 -5 -32 2 -18 15 10 11 38 8 51 -5z m112
-7 c13 -24 13 -81 1 -81 -6 0 -11 17 -13 38 -2 29 -7 37 -23 37 -16 0 -21 -9
-26 -40 l-6 -40 -2 50 c-1 49 0 51 29 53 20 2 32 -4 40 -17z m240 9 c0 -6 -7
-10 -15 -10 -11 0 -15 -11 -15 -40 0 -22 -4 -40 -10 -40 -5 0 -10 22 -10 48 0
44 2 48 25 50 14 1 25 -3 25 -8z m78 -2 c7 -7 12 -20 12 -30 0 -13 -8 -18 -30
-18 -16 0 -30 -4 -30 -9 0 -17 19 -22 41 -10 17 9 20 8 17 -3 -6 -18 -46 -23
-64 -8 -30 26 -11 90 26 90 9 0 21 -5 28 -12z m99 -4 c2 -7 -6 -10 -22 -7 -15
3 -25 1 -25 -6 0 -6 6 -11 14 -11 8 0 22 -7 31 -16 12 -12 13 -19 4 -30 -14
-17 -55 -19 -64 -3 -11 17 3 23 20 9 11 -9 19 -10 27 -2 7 7 1 15 -21 26 -34
18 -37 26 -19 44 15 15 50 12 55 -4z m40 -62 c-2 -15 -4 -2 -4 28 0 30 2 43 4
27 2 -15 2 -39 0 -55z m93 28 c0 -27 -4 -50 -10 -50 -5 0 -10 23 -10 50 0 28
5 50 10 50 6 0 10 -22 10 -50z m87 42 c6 -4 13 -16 15 -27 2 -16 -3 -21 -29
-23 -18 -2 -33 -7 -33 -12 0 -15 32 -20 48 -8 13 11 14 10 10 -2 -6 -19 -45
-25 -64 -10 -17 15 -19 61 -2 78 13 13 37 15 55 4z m113 -11 c13 -24 13 -81 1
-81 -6 0 -11 17 -13 38 -2 29 -7 37 -23 37 -16 0 -21 -9 -26 -40 l-6 -40 -2
50 c-1 49 0 51 29 53 20 2 32 -4 40 -17z m265 -5 c21 -32 5 -76 -28 -76 -30 0
-47 18 -47 50 0 51 48 68 75 26z m100 -6 c10 -43 22 -45 35 -5 6 19 16 35 21
35 11 0 -29 -110 -47 -129 -7 -8 -17 -11 -21 -7 -4 4 -1 11 7 16 13 8 8 41
-17 106 -3 8 -1 14 5 14 6 0 13 -13 17 -30z m150 6 c21 -32 5 -76 -28 -76 -30
0 -47 18 -47 50 0 51 48 68 75 26z m55 -20 c0 -38 6 -47 26 -39 9 3 14 20 14
44 0 21 5 39 10 39 6 0 10 -22 10 -49 l0 -49 -37 1 -38 2 -3 48 c-2 33 0 47 7
42 6 -3 11 -21 11 -39z m130 34 c0 -4 -7 -10 -15 -14 -9 -3 -15 -19 -15 -41 0
-19 -4 -35 -10 -35 -5 0 -10 22 -10 49 0 45 2 49 25 49 14 0 25 -4 25 -8z
m138 -2 c14 -12 16 -88 2 -88 -5 0 -10 18 -10 40 0 33 -3 40 -20 40 -17 0 -20
-7 -20 -40 0 -22 -4 -40 -10 -40 -5 0 -10 21 -10 48 0 44 2 47 28 49 15 1 33
-3 40 -9z m100 0 c7 -7 12 -20 12 -30 0 -13 -8 -18 -30 -18 -16 0 -30 -4 -30
-9 0 -17 19 -22 41 -10 17 9 20 8 17 -3 -6 -18 -46 -23 -64 -8 -30 26 -11 90
26 90 9 0 21 -5 28 -12z m112 -7 c17 -32 12 -41 -25 -41 -36 0 -47 -13 -19
-24 9 -4 23 -1 32 6 13 11 14 10 10 -2 -13 -40 -78 -14 -78 31 0 43 61 65 80
30z m197 3 c2 -7 -6 -10 -24 -7 -25 4 -26 3 -11 -9 9 -7 24 -17 33 -23 25 -16
8 -45 -26 -45 -20 0 -29 5 -29 16 0 13 3 14 15 4 14 -12 35 -6 35 10 0 4 -11
11 -25 14 -24 6 -34 34 -18 50 10 10 46 3 50 -10z m53 -74 c0 -5 -4 -10 -10
-10 -5 0 -10 5 -10 10 0 6 5 10 10 10 6 0 10 -4 10 -10z"/>
<path d="M3010 2310 c0 -23 35 -28 43 -6 7 18 -1 26 -25 26 -11 0 -18 -7 -18
-20z"/>
<path d="M3117 2324 c-10 -10 -8 -56 2 -73 5 -8 16 -11 26 -8 22 9 17 80 -5
85 -9 1 -19 0 -23 -4z"/>
<path d="M4364 2317 c-3 -9 -4 -28 -2 -44 2 -20 8 -28 23 -28 17 0 20 7 20 40
0 30 -4 41 -18 43 -9 2 -20 -3 -23 -11z"/>
<path d="M302 1693 c-13 -41 -21 -77 -19 -80 3 -2 25 -3 49 -1 l45 3 -26 77
-26 77 -23 -76z"/>
<path d="M6054 1669 c-25 -28 -25 -110 1 -139 23 -26 59 -26 85 0 15 15 20 33
20 70 0 37 -5 55 -20 70 -26 26 -62 25 -86 -1z"/>
<path d="M1281 1664 c-37 -47 -21 -139 26 -151 38 -9 71 12 82 52 26 93 -55
167 -108 99z"/>
<path d="M2082 1667 c-36 -38 -28 -47 43 -47 57 0 65 2 65 18 0 26 -31 52 -62
52 -13 0 -34 -10 -46 -23z"/>
<path d="M2606 1580 c-36 -11 -48 -28 -35 -52 14 -27 74 -24 93 4 36 51 13 69
-58 48z"/>
<path d="M3547 1672 c-34 -38 -22 -52 43 -52 53 0 60 2 60 19 0 47 -71 69
-103 33z"/>
<path d="M4626 1580 c-36 -11 -48 -28 -35 -52 14 -27 74 -24 93 4 36 51 13 69
-58 48z"/>
<path d="M5012 1667 c-36 -38 -28 -47 43 -47 57 0 65 2 65 18 0 26 -31 52 -62
52 -13 0 -34 -10 -46 -23z"/>
<path d="M5536 1580 c-36 -11 -48 -28 -35 -52 14 -27 74 -24 93 4 36 51 13 69
-58 48z"/>
<path d="M6700 1670 c-37 -37 -26 -50 39 -50 67 0 80 10 57 45 -20 31 -68 33
-96 5z"/>
<path d="M331 1094 c-11 -15 -18 -30 -15 -35 3 -5 32 -9 65 -9 51 0 59 3 59
18 0 51 -75 69 -109 26z"/>
<path d="M841 1094 c-11 -15 -18 -30 -15 -35 3 -5 32 -9 65 -9 51 0 59 3 59
18 0 51 -75 69 -109 26z"/>
<path d="M2192 1097 c-36 -38 -28 -47 43 -47 57 0 65 2 65 18 0 26 -31 52 -62
52 -13 0 -34 -10 -46 -23z"/>
<path d="M2646 1011 c-63 -13 -56 -71 9 -71 36 0 50 12 60 53 6 24 4 27 -16
26 -13 -1 -37 -4 -53 -8z"/>
<path d="M3418 1109 c-25 -14 -38 -72 -27 -114 17 -61 93 -74 117 -20 38 84
-22 174 -90 134z"/>
<path d="M4070 1100 c-15 -15 -20 -33 -20 -70 0 -57 24 -90 65 -90 41 0 65 33
65 90 0 57 -24 90 -65 90 -14 0 -34 -9 -45 -20z"/>
<path d="M4985 1100 c-26 -29 -26 -111 -1 -139 46 -51 111 -11 111 69 0 79
-65 120 -110 70z"/>
<path d="M6092 1097 c-36 -38 -28 -47 43 -47 57 0 65 2 65 18 0 26 -31 52 -62
52 -13 0 -34 -10 -46 -23z"/>
<path d="M6895 1100 c-26 -29 -26 -111 -1 -139 46 -51 111 -11 111 69 0 79
-65 120 -110 70z"/>
<path d="M1641 389 c-19 -7 -22 -12 -13 -21 9 -9 16 -8 29 5 21 21 15 27 -16
16z"/>
<path d="M2021 389 c-19 -7 -22 -12 -13 -21 9 -9 16 -8 29 5 21 21 15 27 -16
16z"/>
<path d="M2150 420 c0 -5 9 -10 20 -10 11 0 20 5 20 10 0 6 -9 10 -20 10 -11
0 -20 -4 -20 -10z"/>
<path d="M2445 420 c-4 -6 5 -10 19 -10 14 0 26 5 26 10 0 6 -9 10 -19 10 -11
0 -23 -4 -26 -10z"/>
<path d="M2617 423 c-11 -10 -8 -38 4 -50 18 -18 39 -3 39 28 0 21 -5 29 -18
29 -10 0 -22 -3 -25 -7z"/>
<path d="M3300 420 c0 -5 9 -10 20 -10 11 0 20 5 20 10 0 6 -9 10 -20 10 -11
0 -20 -4 -20 -10z"/>
<path d="M3607 423 c-11 -10 -8 -38 4 -50 18 -18 39 -3 39 28 0 21 -5 29 -18
29 -10 0 -22 -3 -25 -7z"/>
<path d="M4031 389 c-19 -7 -22 -12 -13 -21 9 -9 16 -8 29 5 21 21 15 27 -16
16z"/>
<path d="M4180 420 c0 -5 12 -10 26 -10 14 0 23 4 19 10 -3 6 -15 10 -26 10
-10 0 -19 -4 -19 -10z"/>
<path d="M4437 423 c-11 -10 -8 -38 4 -50 18 -18 39 -3 39 28 0 21 -5 29 -18
29 -10 0 -22 -3 -25 -7z"/>
<path d="M4700 420 c0 -5 9 -10 20 -10 11 0 20 5 20 10 0 6 -9 10 -20 10 -11
0 -20 -4 -20 -10z"/>
<path d="M5048 392 c-20 -4 -23 -17 -7 -28 12 -7 33 10 28 23 -2 5 -12 7 -21
5z"/>
<path d="M5291 389 c-19 -7 -22 -12 -13 -21 9 -9 16 -8 29 5 21 21 15 27 -16
16z"/>
<path d="M5440 420 c0 -5 12 -10 26 -10 14 0 23 4 19 10 -3 6 -15 10 -26 10
-10 0 -19 -4 -19 -10z"/>
<path d="M5647 423 c-11 -10 -8 -38 4 -50 18 -18 39 -3 39 28 0 21 -5 29 -18
29 -10 0 -22 -3 -25 -7z"/>
<path d="M5971 389 c-19 -7 -22 -12 -13 -21 9 -9 16 -8 29 5 21 21 15 27 -16
16z"/>
<path d="M2976 144 c-6 -17 9 -54 23 -54 17 0 32 30 26 50 -8 24 -40 27 -49 4z"/>
<path d="M4773 144 c-8 -20 9 -49 28 -49 8 0 15 13 17 33 3 27 0 32 -18 32
-11 0 -23 -7 -27 -16z"/>
<path d="M2788 122 c-20 -4 -23 -17 -7 -28 12 -7 33 10 28 23 -2 5 -12 7 -21
5z"/>
<path d="M3200 150 c0 -5 9 -10 20 -10 11 0 20 5 20 10 0 6 -9 10 -20 10 -11
0 -20 -4 -20 -10z"/>
<path d="M3520 150 c0 -5 12 -10 26 -10 14 0 23 4 19 10 -3 6 -15 10 -26 10
-10 0 -19 -4 -19 -10z"/>
<path d="M3886 144 c-7 -19 11 -57 26 -52 19 7 32 34 25 52 -8 21 -43 21 -51
0z"/>
<path d="M4136 144 c-7 -19 11 -57 26 -52 19 7 32 34 25 52 -8 21 -43 21 -51
0z"/>
<path d="M4570 150 c0 -5 9 -10 20 -10 11 0 20 5 20 10 0 6 -9 10 -20 10 -11
0 -20 -4 -20 -10z"/>
<path d="M4675 150 c-4 -6 5 -10 19 -10 14 0 26 5 26 10 0 6 -9 10 -19 10 -11
0 -23 -4 -26 -10z"/>
</g>
</svg>
